<?xml version="1.0" encoding="utf-8"?>
<!-- Generator: Adobe Illustrator 23.0.4, SVG Export Plug-In . SVG Version: 6.00 Build 0)  -->
<svg version="1.1" xmlns="http://www.w3.org/2000/svg" xmlns:xlink="http://www.w3.org/1999/xlink" x="0px" y="0px"
	 viewBox="0 0 500 500" style="enable-background:new 0 0 500 500;" xml:space="preserve">
<g id="Layer_1">
	<g>
		<g>
			<path d="M226.82,247.2c-5.06-3.61-10.96-5.42-17.7-5.42c-8.67,0-15.83,3.56-21.49,10.66c-5.66,7.1-8.49,15.35-8.49,24.74
				c0,20.47,7.77,38.11,23.3,52.92s33.17,22.21,52.92,22.21c17.82,0,32.75-6.14,44.79-18.42c12.04-12.28,18.06-27.21,18.06-44.79
				c0-18.3-8.67-34.8-26.01-49.49c-5.78,5.06-13.24,7.59-22.39,7.59c-6.02,0-11.44-1.26-16.25-3.79c-4.82-2.53-7.22-6.08-7.22-10.66
				c0-4.82,2.83-8.54,8.49-11.2c5.66-2.65,11.86-3.97,18.6-3.97c3.37,0,8.07,0.85,14.09,2.53c7.95-6.98,11.92-16.49,11.92-28.54
				c0-11.32-3.85-21.13-11.56-29.44c-7.71-8.31-17.1-12.46-28.17-12.46c-7.71,0-14.33,2.65-19.87,7.95
				c-5.54,5.3-8.31,11.8-8.31,19.51c0,4.1,0.6,7.77,1.81,11.02c1.2,3.25,1.81,5,1.81,5.24c0,1.69-1.08,2.53-3.25,2.53
				c-4.09,0-8.73-3.13-13.91-9.39c-5.18-6.26-7.77-12.88-7.77-19.87c0-10.11,4.15-18.18,12.46-24.2c8.31-6.02,18-9.03,29.08-9.03
				c15.89,0,30.82,5.42,44.79,16.25c13.97,10.84,20.95,24.2,20.95,40.09c0,13.24-4.58,25.05-13.73,35.4
				c11.32,4.33,21.73,12.88,31.24,25.65c9.51,12.77,14.27,26.49,14.27,41.18c0,22.16-8.97,40.33-26.91,54.54
				c-17.94,14.21-38.83,21.31-62.67,21.31c-27.45,0-51.83-8.36-73.14-25.1c-21.31-16.74-31.97-37.02-31.97-60.86
				c0-18.06,6.62-32.99,19.87-44.79c-4.82,0.49-7.95,0.72-9.39,0.72c-12.28,0-22.09-3.25-29.44-9.75
				c-7.34-6.5-11.02-15.05-11.02-25.65c0-10.6,4.15-18.9,12.46-24.92c8.31-6.02,19.2-9.03,32.69-9.03
				c6.26,4.82,9.39,9.99,9.39,15.53c0,3.13-1.02,5.9-3.07,8.31c-2.05,2.41-4.51,3.61-7.4,3.61c-2.65,0-5.84-1.08-9.57-3.25
				c-3.73-2.17-6.92-3.25-9.57-3.25c-3.37,0-6.14,1.26-8.31,3.79c-2.17,2.53-3.25,5.6-3.25,9.21c0,6.99,3.19,12.34,9.57,16.07
				c6.38,3.74,13.79,5.6,22.21,5.6c3.61,0,8.19-0.12,13.73-0.36c5.54-0.24,10.11-0.36,13.73-0.36c13.97,0,26.13,4.39,36.48,13.18
				c10.35,8.79,15.53,19.81,15.53,33.05c0,9.16-3.19,16.74-9.57,22.76c-6.38,6.02-12.46,9.03-18.24,9.03
				c-3.37-0.96-6.2-3.01-8.49-6.14c-2.29-3.13-3.43-6.74-3.43-10.84c0-3.37,1.32-6.02,3.97-7.95c2.65-1.93,5.48-3.13,8.49-3.61
				c3.01-0.48,5.84-1.63,8.49-3.43c2.65-1.81,3.97-4.39,3.97-7.77C234.41,255.64,231.88,250.82,226.82,247.2z"/>
		</g>
	</g>
</g>
<g id="Layer_2">
	<g>
		<path d="M222.44,350.25l34.09-186.9c0.72-3.86,1.32-12.33,1.44-15.67c0.18-4.88-15.62-1.52-27.4-1.52c-0.58,0,4.53-7.78,6.15-9.85
			c13.2-1.54,31.17-6.24,42.97-11.89c1.13,0.77,1.63,3.21,1.47,7.32c-0.11,3.08-1.74,12.72-4.84,28.9l-34.38,186.9
			c-0.69,3.09-1.09,6.3-1.21,9.64c-0.24,6.42,0.6,9.63,2.54,9.63c1.15,0,2.59-0.7,4.28-2.11c1.69-1.41,3.45-3.15,5.26-5.21
			c1.82-2.05,5.6,8.09-2.66,17.34c-8.27,9.25-15.39,13.87-21.38,13.87c-2.9,0-5.2-1.87-6.9-5.58c-1.7-3.73-2.43-8.54-2.22-14.45
			C219.82,366.31,220.74,359.5,222.44,350.25z"/>
	</g>
</g>
<g id="Layer_3">
	<path d="M250.41,97.64c40.87,0,79.28,15.91,108.18,44.81c28.9,28.9,44.81,67.32,44.81,108.18s-15.91,79.28-44.81,108.18
		c-28.9,28.9-67.32,44.81-108.18,44.81s-79.28-15.91-108.18-44.81c-28.9-28.9-44.81-67.32-44.81-108.18s15.91-79.28,44.81-108.18
		C171.13,113.56,209.55,97.64,250.41,97.64 M250.41,87.64c-90.02,0-162.99,72.97-162.99,162.99s72.97,162.99,162.99,162.99
		c90.02,0,162.99-72.97,162.99-162.99S340.43,87.64,250.41,87.64L250.41,87.64z"/>
</g>
<g id="Layer_4">
	<path d="M250.41,82.64c92.63,0,167.99,75.36,167.99,167.99c0,92.63-75.36,167.99-167.99,167.99
		c-92.63,0-167.99-75.36-167.99-167.99C82.42,158,157.78,82.64,250.41,82.64 M250.41,77.64c-95.39,0-172.99,77.6-172.99,172.99
		s77.6,172.99,172.99,172.99c95.39,0,172.99-77.6,172.99-172.99S345.8,77.64,250.41,77.64L250.41,77.64z"/>
</g>
</svg>
